<?xml version="1.0" encoding="UTF-8" standalone="no"?>
<!DOCTYPE svg PUBLIC "-//W3C//DTD SVG 1.1//EN" "http://www.w3.org/Graphics/SVG/1.1/DTD/svg11.dtd">
<!-- Created with Vectornator (http://vectornator.io/) -->
<svg height="100%" stroke-miterlimit="10" style="fill-rule:nonzero;clip-rule:evenodd;stroke-linecap:round;stroke-linejoin:round;" version="1.1" viewBox="0 0 190.64 190.64" width="100%" xml:space="preserve" xmlns="http://www.w3.org/2000/svg" xmlns:vectornator="http://vectornator.io" xmlns:xlink="http://www.w3.org/1999/xlink">
<defs>
<filter color-interpolation-filters="sRGB" filterUnits="userSpaceOnUse" height="111.796" id="Filter" width="94.8182" x="49.5581" y="39.8592">
<feDropShadow dx="-0.0348975" dy="-1.9997" flood-color="#e9dfdf" flood-opacity="1" in="SourceGraphic" result="Shadow" stdDeviation="1"/>
</filter>
</defs>
<g id="Layer-2" vectornator:layerName="Layer 2">
<g opacity="1" vectornator:layerName="Layer 1">
<path d="M0 95.32C0 42.6762 42.6762 0 95.32 0C147.964 0 190.64 42.6762 190.64 95.32C190.64 147.964 147.964 190.64 95.32 190.64C42.6762 190.64 0 147.964 0 95.32Z" fill="#020a45" fill-opacity="0.72703" fill-rule="nonzero" opacity="1" stroke="none" vectornator:layerName="circle"/>
<path d="M138.86 44.3589L141.911 73.4638L139.486 73.4638C137.556 67.3611 135.131 62.406 132.21 58.5984C129.289 54.7908 125.716 51.9611 121.491 50.1095C117.266 48.2578 112.259 47.332 106.469 47.332L104.278 47.332C97.4455 47.332 92.6077 48.5969 89.765 51.1266C86.9224 53.6563 85.501 58.0768 85.501 64.3881L85.501 90.9893L93.2467 90.9893C101.123 90.9893 106.86 89.7505 110.459 87.2729C114.058 84.7954 116.536 80.3227 117.892 73.855L120.239 73.855L120.239 115.556L117.892 115.556C116.849 109.662 115.44 105.216 113.667 102.217C111.894 99.2174 109.455 97.1049 106.352 95.8792C103.248 94.6535 98.8538 94.0406 93.1684 94.0406L85.501 94.0406L85.501 127.292C85.501 131.934 85.814 135.338 86.4399 137.502C87.0658 139.667 88.2655 141.558 90.0389 143.175C93.1684 145.991 97.8367 147.843 104.044 148.73L104.044 151.155L52.093 151.155L52.093 148.73C57.7262 147.791 61.8207 145.626 64.3765 142.236C66.3586 139.732 67.3496 134.751 67.3496 127.292L67.3496 68.2218C67.3496 63.4753 67.0888 60.0328 66.5672 57.8942C66.0456 55.7557 65.0807 53.9301 63.6724 52.4175C61.0644 49.4966 57.2046 47.6189 52.093 46.7843L52.093 44.3589L138.86 44.3589ZM133.07 47.2538L121.882 47.2538C124.907 48.5577 127.307 49.9139 129.08 51.3222C130.853 52.7305 132.757 54.8429 134.791 57.6595L133.07 47.2538ZM114.371 87.625C113.171 88.8247 112.037 89.7374 110.968 90.3634C109.899 90.9893 108.216 91.7456 105.921 92.6323C108.894 93.519 111.711 95.2142 114.371 97.7178L114.371 87.625ZM63.0465 147.165L85.8922 147.165L82.8409 144.896C81.0675 143.592 79.933 142.549 79.4375 141.766C78.942 140.984 78.6942 139.81 78.6942 138.246C78.6942 137.411 78.6812 136.85 78.6551 136.563C78.629 136.277 78.616 135.977 78.616 135.664L78.616 134.334L78.616 61.1803L78.616 59.8502C78.616 59.5373 78.629 59.2243 78.6551 58.9113C78.6812 58.5984 78.6942 58.0507 78.6942 57.2683C78.6942 55.7035 78.9681 54.4908 79.5158 53.6302C80.0634 52.7696 81.1718 51.7655 82.8409 50.618L87.3005 47.332L61.6382 47.332L66.0978 50.618C67.9234 51.922 69.0709 52.9391 69.5403 53.6693C70.0097 54.3996 70.2444 55.5992 70.2444 57.2683C70.2966 58.155 70.3227 59.0157 70.3227 59.8502L70.3227 61.1803L70.3227 134.334L70.3227 135.664C70.3227 136.498 70.2966 137.359 70.2444 138.246C70.2444 139.862 70.0097 141.049 69.5403 141.805C69.0709 142.562 67.9234 143.592 66.0978 144.896L63.0465 147.165Z" fill="#ffffff" filter="url(#Filter)" stroke="none" vectornator:blendMode="difference" vectornator:shadowAngle="4.69494" vectornator:shadowColor="#e9dfdf" vectornator:shadowOffset="2" vectornator:shadowOpacity="1" vectornator:shadowRadius="2"/>
<g opacity="1" vectornator:layerName="path">
<clipPath id="ClipPath">
<path d="M7.01824 95.32C7.01824 45.7665 46.5523 5.5955 95.32 5.5955C144.088 5.5955 183.622 45.7665 183.622 95.32C183.622 144.873 144.088 185.044 95.32 185.044C46.5523 185.044 7.01824 144.873 7.01824 95.32Z"/>
</clipPath>
<g clip-path="url(#ClipPath)">
<path d="M7.01824 95.32C7.01824 45.7665 46.5523 5.5955 95.32 5.5955C144.088 5.5955 183.622 45.7665 183.622 95.32C183.622 144.873 144.088 185.044 95.32 185.044C46.5523 185.044 7.01824 144.873 7.01824 95.32Z" fill="none" opacity="1" stroke="#e9dfdf" stroke-dasharray="9.0" stroke-linecap="square" stroke-linejoin="miter" stroke-width="14" vectornator:layerName="path"/>
</g>
</g>
</g>
</g>
</svg>
